<?xml version="1.0" encoding="utf-8"?>
<!-- Generator: Adobe Illustrator 24.0.0, SVG Export Plug-In . SVG Version: 6.00 Build 0)  -->
<svg version="1.1" id="Layer_1" xmlns="http://www.w3.org/2000/svg" xmlns:xlink="http://www.w3.org/1999/xlink" x="0px" y="0px"
	 viewBox="0 0 20.04 13.37" style="enable-background:new 0 0 20.04 13.37;" xml:space="preserve">
<style type="text/css">
	.st0{fill:#244EA2;}
</style>
<path class="st0" d="M18.11,0H1.93C0.87,0,0,0.87,0,1.93v9.52c0,1.06,0.87,1.93,1.93,1.93h16.18c1.06,0,1.93-0.87,1.93-1.93V1.93
	C20.04,0.87,19.17,0,18.11,0z M14.29,7.3l4.95-3.76v7.6L14.29,7.3z M1.93,0.8h16.18c0.62,0,1.13,0.51,1.13,1.13v0.64
	c-0.05,0.01-0.09,0.03-0.13,0.06l-8.42,6.4c-0.4,0.3-0.95,0.3-1.35,0l-8.42-6.4C0.88,2.6,0.84,2.59,0.8,2.57V1.93
	C0.8,1.3,1.3,0.8,1.93,0.8z M0.8,3.54L5.74,7.3L0.8,11.14V3.54z M18.11,12.58H1.93c-0.41,0-0.76-0.23-0.96-0.56L6.4,7.8l2.45,1.87
	c0.34,0.26,0.75,0.39,1.16,0.39s0.82-0.13,1.16-0.39l2.45-1.87l5.44,4.21C18.87,12.35,18.52,12.58,18.11,12.58z"/>
</svg>
