<?xml version="1.0" encoding="utf-8"?>
<!-- Generator: Adobe Illustrator 24.0.0, SVG Export Plug-In . SVG Version: 6.00 Build 0)  -->
<svg version="1.1" id="Layer_1" xmlns="http://www.w3.org/2000/svg" xmlns:xlink="http://www.w3.org/1999/xlink" x="0px" y="0px"
	 viewBox="0 0 101.95 101.95" style="enable-background:new 0 0 101.95 101.95;" xml:space="preserve">
<style type="text/css">
	.st0{fill:#C7C8E6;}
	.st1{fill:#244EA2;}
	.st2{fill:#FFFFFF;}
	.st3{fill:#ED1B34;}
</style>
<g>
	<g>
		<g>
			<circle class="st0" cx="50.98" cy="50.98" r="50.98"/>
		</g>
		<g>
			<circle class="st1" cx="50.98" cy="50.98" r="43.22"/>
		</g>
		<g>
			<path class="st2" d="M77.82,46.55C77.82,46.55,77.82,46.55,77.82,46.55l-26.33-21.3c-0.3-0.24-0.72-0.24-1.01,0l-26.34,21.3
				c-0.01,0.01-0.01,0.02-0.02,0.02c-0.07,0.06-0.13,0.13-0.18,0.22c-0.01,0.01-0.01,0.03-0.02,0.04c-0.03,0.07-0.06,0.14-0.07,0.22
				c0,0.02-0.01,0.05-0.01,0.07c0,0.02-0.01,0.04-0.01,0.05v25.33c0,2.41,1.96,4.37,4.37,4.37h45.56c2.41,0,4.37-1.96,4.37-4.37
				V47.18C78.13,46.93,78.01,46.71,77.82,46.55z M61.19,57.78l15.32-9.17v23.91c0,0.44-0.11,0.85-0.3,1.22L61.19,57.78z
				 M50.98,26.92l24.93,20.17L51.88,61.48c-0.56,0.33-1.25,0.33-1.81,0l-24.03-14.4L50.98,26.92z M25.74,73.72
				c-0.18-0.37-0.29-0.77-0.29-1.21V48.6l15.31,9.17L25.74,73.72z M28.2,75.26c-0.49,0-0.95-0.14-1.35-0.37l15.33-16.27l7.07,4.24
				c0,0,0,0,0,0c1.06,0.63,2.39,0.63,3.46,0l7.07-4.24L75.11,74.9c-0.4,0.23-0.85,0.37-1.35,0.37H28.2z"/>
		</g>
		<path class="st3" d="M50.07,61.48c0.56,0.33,1.25,0.33,1.81,0l22.29-13.35v-15.3c0-1.93-1.56-3.49-3.49-3.49H32.52
			c-1.93,0-3.49,1.56-3.49,3.49v16.04L50.07,61.48z"/>
	</g>
	<g>
		<path class="st2" d="M70.6,43.13h-1.34v-2.16h1.34c0.28,0,0.51-0.23,0.51-0.51s-0.23-0.51-0.51-0.51h-1.34v-1.34
			c0-0.28-0.23-0.51-0.51-0.51s-0.51,0.23-0.51,0.51v1.34h-2.16v-1.34c0-0.28-0.23-0.51-0.51-0.51s-0.51,0.23-0.51,0.51v1.34h-1.34
			c-0.28,0-0.51,0.23-0.51,0.51s0.23,0.51,0.51,0.51h1.34v2.16h-1.34c-0.28,0-0.51,0.23-0.51,0.51s0.23,0.51,0.51,0.51h1.34v1.34
			c0,0.28,0.23,0.51,0.51,0.51s0.51-0.23,0.51-0.51v-1.34h2.16v1.34c0,0.28,0.23,0.51,0.51,0.51s0.51-0.23,0.51-0.51v-1.34h1.34
			c0.28,0,0.51-0.23,0.51-0.51S70.88,43.13,70.6,43.13z M66.08,43.13v-2.16h2.16v2.16H66.08z"/>
		<path class="st2" d="M59.91,40.97c0.28,0,0.51-0.23,0.51-0.51s-0.23-0.51-0.51-0.51h-1.35v-1.34c0-0.28-0.23-0.51-0.51-0.51
			s-0.51,0.23-0.51,0.51v1.34h-2.15v-1.34c0-0.28-0.23-0.51-0.51-0.51s-0.51,0.23-0.51,0.51v1.34h-1.35c-0.28,0-0.51,0.23-0.51,0.51
			s0.23,0.51,0.51,0.51h1.35v2.16h-1.35c-0.28,0-0.51,0.23-0.51,0.51s0.23,0.51,0.51,0.51h1.35v1.34c0,0.28,0.23,0.51,0.51,0.51
			s0.51-0.23,0.51-0.51v-1.34h2.15v1.34c0,0.28,0.23,0.51,0.51,0.51s0.51-0.23,0.51-0.51v-1.34h1.35c0.28,0,0.51-0.23,0.51-0.51
			s-0.23-0.51-0.51-0.51h-1.35v-2.16H59.91z M57.54,43.13h-2.15v-2.16h2.15V43.13z"/>
		<path class="st2" d="M49.21,40.97c0.28,0,0.51-0.23,0.51-0.51s-0.23-0.51-0.51-0.51h-1.34v-1.34c0-0.28-0.23-0.51-0.51-0.51
			s-0.51,0.23-0.51,0.51v1.34h-2.16v-1.34c0-0.28-0.23-0.51-0.51-0.51s-0.51,0.23-0.51,0.51v1.34h-1.34c-0.28,0-0.51,0.23-0.51,0.51
			s0.23,0.51,0.51,0.51h1.34v2.16h-1.34c-0.28,0-0.51,0.23-0.51,0.51s0.23,0.51,0.51,0.51h1.34v1.34c0,0.28,0.23,0.51,0.51,0.51
			s0.51-0.23,0.51-0.51v-1.34h2.16v1.34c0,0.28,0.23,0.51,0.51,0.51s0.51-0.23,0.51-0.51v-1.34h1.34c0.28,0,0.51-0.23,0.51-0.51
			s-0.23-0.51-0.51-0.51h-1.34v-2.16H49.21z M46.85,43.13h-2.16v-2.16h2.16V43.13z"/>
		<path class="st2" d="M38.51,40.97c0.28,0,0.51-0.23,0.51-0.51s-0.23-0.51-0.51-0.51h-1.34v-1.34c0-0.28-0.23-0.51-0.51-0.51
			s-0.51,0.23-0.51,0.51v1.34H34v-1.34c0-0.28-0.23-0.51-0.51-0.51s-0.51,0.23-0.51,0.51v1.34h-1.35c-0.28,0-0.51,0.23-0.51,0.51
			s0.23,0.51,0.51,0.51h1.35v2.16h-1.35c-0.28,0-0.51,0.23-0.51,0.51s0.23,0.51,0.51,0.51h1.35v1.34c0,0.28,0.23,0.51,0.51,0.51
			S34,45.77,34,45.49v-1.34h2.15v1.34c0,0.28,0.23,0.51,0.51,0.51s0.51-0.23,0.51-0.51v-1.34h1.34c0.28,0,0.51-0.23,0.51-0.51
			s-0.23-0.51-0.51-0.51h-1.34v-2.16H38.51z M36.15,43.13H34v-2.16h2.15V43.13z"/>
	</g>
</g>
</svg>
