<?xml version="1.0" encoding="utf-8"?>
<!-- Generator: Adobe Illustrator 24.0.0, SVG Export Plug-In . SVG Version: 6.00 Build 0)  -->
<svg version="1.1" id="Layer_1" xmlns="http://www.w3.org/2000/svg" xmlns:xlink="http://www.w3.org/1999/xlink" x="0px" y="0px"
	 viewBox="0 0 101.95 101.95" style="enable-background:new 0 0 101.95 101.95;" xml:space="preserve">
<style type="text/css">
	.st0{fill:#C7C8E6;}
	.st1{fill:#244EA2;}
	.st2{fill:#FFFFFF;}
</style>
<g>
	<g>
		<circle class="st0" cx="50.98" cy="50.98" r="50.98"/>
	</g>
	<g>
		<circle class="st1" cx="50.98" cy="50.98" r="43.22"/>
	</g>
	<g>
		<path class="st2" d="M33.89,64.81c-0.22-0.35-0.69-0.45-1.04-0.23l-2.53,1.61v-3c0-0.41-0.34-0.75-0.75-0.75s-0.75,0.34-0.75,0.75
			v3l-2.53-1.61c-0.35-0.22-0.81-0.12-1.04,0.23c-0.22,0.35-0.12,0.81,0.23,1.04l2.69,1.71l-2.69,1.71
			c-0.35,0.22-0.45,0.69-0.23,1.04c0.14,0.22,0.39,0.35,0.63,0.35c0.14,0,0.28-0.04,0.4-0.12l2.53-1.61v3
			c0,0.41,0.34,0.75,0.75,0.75s0.75-0.34,0.75-0.75v-3l2.53,1.61c0.13,0.08,0.26,0.12,0.4,0.12c0.25,0,0.49-0.12,0.63-0.35
			c0.22-0.35,0.12-0.81-0.23-1.04l-2.69-1.71l2.69-1.71C34.01,65.62,34.11,65.16,33.89,64.81z"/>
		<path class="st2" d="M48.15,64.81c-0.22-0.35-0.69-0.45-1.04-0.23l-2.53,1.61v-3c0-0.41-0.34-0.75-0.75-0.75s-0.75,0.34-0.75,0.75
			v2.99l-2.52-1.61c-0.35-0.22-0.81-0.12-1.04,0.23c-0.22,0.35-0.12,0.81,0.23,1.04l2.68,1.71l-2.68,1.71
			c-0.35,0.22-0.45,0.69-0.23,1.04c0.14,0.22,0.39,0.35,0.63,0.35c0.14,0,0.28-0.04,0.4-0.12l2.52-1.61v2.99
			c0,0.41,0.34,0.75,0.75,0.75s0.75-0.34,0.75-0.75v-3l2.53,1.61c0.13,0.08,0.26,0.12,0.4,0.12c0.25,0,0.49-0.12,0.63-0.35
			c0.22-0.35,0.12-0.81-0.23-1.04l-2.68-1.71l2.68-1.71C48.27,65.62,48.38,65.16,48.15,64.81z"/>
		<path class="st2" d="M62.41,64.81c-0.22-0.35-0.69-0.45-1.04-0.23l-2.52,1.61v-2.99c0-0.41-0.34-0.75-0.75-0.75
			s-0.75,0.34-0.75,0.75v3l-2.53-1.61c-0.35-0.22-0.81-0.12-1.04,0.23c-0.22,0.35-0.12,0.81,0.23,1.04l2.69,1.71l-2.69,1.71
			c-0.35,0.22-0.45,0.69-0.23,1.04c0.14,0.22,0.38,0.35,0.63,0.35c0.14,0,0.28-0.04,0.4-0.12l2.53-1.61v3
			c0,0.41,0.34,0.75,0.75,0.75s0.75-0.34,0.75-0.75v-2.99l2.52,1.61c0.13,0.08,0.26,0.12,0.4,0.12c0.25,0,0.49-0.12,0.63-0.35
			c0.22-0.35,0.12-0.81-0.23-1.04l-2.69-1.71l2.69-1.71C62.53,65.62,62.64,65.16,62.41,64.81z"/>
		<path class="st2" d="M76.45,69.27l-2.69-1.71l2.69-1.71c0.35-0.22,0.45-0.69,0.23-1.04c-0.22-0.35-0.69-0.45-1.04-0.23l-2.53,1.61
			v-3c0-0.41-0.34-0.75-0.75-0.75s-0.75,0.34-0.75,0.75v3l-2.53-1.61c-0.35-0.22-0.81-0.12-1.04,0.23
			c-0.22,0.35-0.12,0.81,0.23,1.04l2.69,1.71l-2.69,1.71c-0.35,0.22-0.45,0.69-0.23,1.04c0.14,0.22,0.39,0.35,0.63,0.35
			c0.14,0,0.28-0.04,0.4-0.12l2.53-1.61v3c0,0.41,0.34,0.75,0.75,0.75s0.75-0.34,0.75-0.75v-3l2.53,1.61
			c0.13,0.08,0.26,0.12,0.4,0.12c0.25,0,0.49-0.12,0.63-0.35C76.91,69.95,76.8,69.49,76.45,69.27z"/>
		<path class="st2" d="M59.68,31.35H46.76v-5.3c0-2.32,1.89-4.21,4.21-4.21c2.32,0,4.21,1.89,4.21,4.21v2.55
			c0,0.43,0.34,0.77,0.77,0.77s0.77-0.35,0.77-0.77v-2.55c0-3.17-2.58-5.75-5.75-5.75c-3.17,0-5.75,2.58-5.75,5.75v5.3h-2.95
			c-1.83,0-3.31,1.49-3.31,3.31v13.77c0,1.83,1.49,3.31,3.31,3.31h17.41c1.83,0,3.31-1.49,3.31-3.31V34.66
			C62.99,32.83,61.5,31.35,59.68,31.35z M61.45,48.43c0,0.98-0.79,1.77-1.77,1.77H42.27c-0.98,0-1.77-0.79-1.77-1.77V34.66
			c0-0.98,0.79-1.77,1.77-1.77h17.41c0.98,0,1.77,0.79,1.77,1.77V48.43z"/>
		<path class="st2" d="M50.98,37.46c-1.15,0-2.08,0.93-2.08,2.08c0,0.86,0.52,1.59,1.26,1.91v2.86c0,0.45,0.36,0.81,0.81,0.81
			c0.45,0,0.81-0.36,0.81-0.81v-2.86c0.74-0.32,1.26-1.05,1.26-1.91C53.05,38.39,52.12,37.46,50.98,37.46z"/>
	</g>
</g>
</svg>
