<?xml version="1.0" encoding="utf-8"?>
<!-- Generator: Adobe Illustrator 24.0.0, SVG Export Plug-In . SVG Version: 6.00 Build 0)  -->
<svg version="1.1" id="Layer_1" xmlns="http://www.w3.org/2000/svg" xmlns:xlink="http://www.w3.org/1999/xlink" x="0px" y="0px"
	 viewBox="0 0 101.95 101.95" style="enable-background:new 0 0 101.95 101.95;" xml:space="preserve">
<style type="text/css">
	.st0{fill:#C7C8E6;}
	.st1{fill:#244EA2;}
	.st2{fill:#FFFFFF;}
</style>
<g>
	<g>
		<circle class="st0" cx="50.98" cy="50.98" r="50.98"/>
	</g>
	<g>
		<circle class="st1" cx="50.98" cy="50.98" r="43.22"/>
	</g>
	<g>
		<path class="st2" d="M59.86,25.35H42.09c-2.35,0-4.27,1.91-4.27,4.27V72.8c0,2.35,1.91,4.27,4.27,4.27h17.78
			c2.35,0,4.27-1.91,4.27-4.27V29.61C64.12,27.26,62.21,25.35,59.86,25.35z M62.52,72.8c0,1.46-1.19,2.65-2.65,2.65H42.09
			c-1.46,0-2.65-1.19-2.65-2.65V29.62c0-1.46,1.19-2.65,2.65-2.65h1.4v0.38c0,1.02,0.82,1.84,1.84,1.84h11.29
			c1.02,0,1.84-0.82,1.84-1.84v-0.38h1.4c1.46,0,2.66,1.19,2.66,2.64V72.8z"/>
		<path class="st2" d="M45,47.42c-0.85,0-1.54,0.34-2.07,1.02c-0.53,0.68-0.8,1.51-0.8,2.48c0,0.98,0.26,1.8,0.79,2.47
			c0.52,0.67,1.21,1.01,2.06,1.01c0.85,0,1.54-0.34,2.06-1.02c0.53-0.68,0.79-1.51,0.79-2.48c0-0.98-0.26-1.8-0.78-2.47
			C46.53,47.75,45.85,47.42,45,47.42z M46.48,52.89C46.1,53.43,45.61,53.7,45,53.7s-1.11-0.28-1.49-0.83
			c-0.39-0.55-0.58-1.21-0.58-1.98c0-0.77,0.19-1.43,0.57-1.97c0.38-0.54,0.87-0.81,1.48-0.81c0.61,0,1.11,0.27,1.49,0.82
			c0.38,0.55,0.57,1.21,0.57,1.98S46.85,52.35,46.48,52.89z"/>
		<polygon class="st2" points="48.81,48.23 52.52,48.23 49.47,54.28 50.32,54.28 53.39,48.1 53.39,47.53 48.81,47.53 		"/>
		<path class="st2" d="M56.79,47.42c-0.71,0-1.29,0.22-1.75,0.66c-0.46,0.44-0.68,0.99-0.68,1.64c0,0.62,0.22,1.12,0.66,1.51
			c0.44,0.39,1,0.59,1.7,0.59c0.82,0,1.46-0.36,1.91-1.08c0.01,0.87-0.17,1.58-0.54,2.13c-0.37,0.55-0.86,0.83-1.46,0.83
			c-0.56,0-1.11-0.24-1.66-0.72l-0.44,0.59c0.67,0.55,1.36,0.83,2.08,0.83c0.83,0,1.5-0.34,2.02-1.02s0.78-1.56,0.78-2.64
			c0-1.19-0.28-2.06-0.84-2.62C58.1,47.65,57.51,47.42,56.79,47.42z M58.01,50.71c-0.31,0.31-0.71,0.46-1.21,0.46
			c-0.49,0-0.89-0.14-1.2-0.42s-0.46-0.63-0.46-1.07c0-0.44,0.15-0.82,0.44-1.13s0.69-0.46,1.18-0.46c0.5,0,0.91,0.15,1.23,0.44
			c0.32,0.3,0.48,0.66,0.48,1.1C58.48,50.05,58.32,50.4,58.01,50.71z"/>
	</g>
</g>
</svg>
