<?xml version="1.0" encoding="utf-8"?>
<!-- Generator: Adobe Illustrator 24.0.0, SVG Export Plug-In . SVG Version: 6.00 Build 0)  -->
<svg version="1.1" id="Layer_1" xmlns="http://www.w3.org/2000/svg" xmlns:xlink="http://www.w3.org/1999/xlink" x="0px" y="0px"
	 viewBox="0 0 15.53 20.38" style="enable-background:new 0 0 15.53 20.38;" xml:space="preserve">
<style type="text/css">
	.st0{fill:#244EA2;}
</style>
<g>
	<path class="st0" d="M13.47,7.23H4.9V3.66c0-1.58,1.28-2.86,2.86-2.86c1.58,0,2.86,1.28,2.86,2.86v1.67c0,0.22,0.18,0.4,0.4,0.4
		s0.4-0.18,0.4-0.4V3.66C11.42,1.64,9.78,0,7.76,0C5.74,0,4.1,1.64,4.1,3.66v3.57H2.07C0.93,7.23,0,8.16,0,9.3v9.01
		c0,1.14,0.93,2.07,2.07,2.07h11.39c1.13,0,2.07-0.92,2.08-2.06V9.3C15.54,8.16,14.61,7.23,13.47,7.23z M14.74,18.32
		c-0.01,0.7-0.58,1.26-1.28,1.26H2.07c-0.7,0-1.27-0.57-1.27-1.27V9.3c0-0.7,0.57-1.27,1.27-1.27h11.4c0.7,0,1.27,0.57,1.27,1.27
		V18.32z"/>
	<path class="st0" d="M7.76,11.13c-0.75,0-1.36,0.61-1.36,1.36c0,0.56,0.34,1.04,0.83,1.25v1.87c0,0.29,0.24,0.53,0.53,0.53
		c0.29,0,0.53-0.24,0.53-0.53v-1.87c0.49-0.2,0.83-0.69,0.83-1.25C9.12,11.74,8.51,11.13,7.76,11.13z"/>
</g>
</svg>
