<?xml version="1.0" encoding="utf-8"?>
<!-- Generator: Adobe Illustrator 24.0.0, SVG Export Plug-In . SVG Version: 6.00 Build 0)  -->
<svg version="1.1" id="Layer_1" xmlns="http://www.w3.org/2000/svg" xmlns:xlink="http://www.w3.org/1999/xlink" x="0px" y="0px"
	 viewBox="0 0 20.69 20.68" style="enable-background:new 0 0 20.69 20.68;" xml:space="preserve">
<style type="text/css">
	.st0{fill:#B1B1D9;}
</style>
<path class="st0" d="M19.94,15.75l-2.89-1.89c-0.46-0.29-0.99-0.32-1.49-0.09c-0.41,0.19-0.81,0.39-1.22,0.59l-0.65,0.32
	c-0.59,0.29-1.17,0.42-1.79,0.38c-0.65-0.04-1.3-0.25-1.97-0.65c-0.56-0.33-1.1-0.76-1.66-1.32l-0.39-0.39
	c-0.38-0.38-0.74-0.73-1.05-1.14c-0.73-0.94-1.1-1.8-1.18-2.71C5.61,8.37,5.66,7.92,5.81,7.52C5.89,7.29,6,7.06,6.11,6.84l0.1-0.2
	c0.02-0.02,0.03-0.05,0.04-0.08l0.65-1.34c0.27-0.57,0.24-1.13-0.11-1.65L4.92,0.72C4.58,0.21,4.09-0.04,3.46,0
	C3.11,0.04,2.82,0.18,2.52,0.33C2.39,0.4,2.26,0.48,2.14,0.55C2.11,0.56,2.08,0.57,2.06,0.59C2.05,0.59,2.04,0.61,2.03,0.62
	c-0.61,0.39-1.1,0.91-1.46,1.54C0.2,2.84,0.01,3.61,0,4.56c0.01,0.11,0.02,0.23,0.02,0.35c0.03,0.78,0.22,1.52,0.42,2.2
	c0.3,0.99,0.71,1.98,1.24,2.96c0.48,0.92,1.04,1.8,1.7,2.71c0.6,0.83,1.19,1.55,1.81,2.21c0.62,0.67,1.32,1.25,1.86,1.68
	c1.67,1.33,3.33,2.33,5.07,3.07c0.78,0.33,1.59,0.59,2.41,0.77c0.57,0.12,1.1,0.18,1.6,0.18c0.13,0,0.26,0,0.38-0.01
	c0.85-0.06,1.56-0.27,2.19-0.66c0.74-0.46,1.31-1.12,1.7-1.96c0.12-0.24,0.23-0.5,0.27-0.79C20.75,16.63,20.49,16.1,19.94,15.75z
	 M15.88,14.5c0.26-0.12,0.5-0.1,0.73,0.04l2.9,1.89c0.29,0.18,0.41,0.42,0.37,0.74c-0.02,0.17-0.11,0.37-0.19,0.55l0,0.01
	c-0.02,0.05-0.05,0.09-0.07,0.13l-4.53-2.97C15.35,14.75,15.62,14.62,15.88,14.5z M3.53,0.8c0.02,0,0.05,0,0.07,0
	c0.29,0,0.49,0.11,0.66,0.36l1.86,2.85C6.31,4.3,6.32,4.56,6.17,4.87L5.82,5.59L2.85,1.06c0.02-0.01,0.04-0.02,0.06-0.03
	C3.14,0.92,3.34,0.82,3.53,0.8z M18.29,19.34c-0.52,0.32-1.1,0.49-1.83,0.54c-0.54,0.03-1.11-0.02-1.76-0.15
	c-0.77-0.17-1.54-0.42-2.27-0.73c-1.68-0.7-3.28-1.67-4.89-2.95c-0.55-0.44-1.19-0.97-1.78-1.6c-0.6-0.63-1.17-1.33-1.75-2.13
	c-0.64-0.88-1.17-1.73-1.64-2.61c-0.5-0.93-0.9-1.88-1.18-2.81C1.02,6.26,0.85,5.58,0.82,4.9c0-0.13-0.01-0.27-0.02-0.36
	C0.81,3.76,0.96,3.1,1.27,2.55C1.5,2.13,1.81,1.79,2.18,1.5l3.24,4.94L5.39,6.49c-0.12,0.25-0.24,0.5-0.33,0.75
	C4.87,7.76,4.8,8.32,4.85,8.91c0.09,1.07,0.51,2.07,1.34,3.13c0.35,0.45,0.74,0.84,1.12,1.22l0.38,0.38c0.6,0.62,1.2,1.09,1.82,1.46
	c0.79,0.46,1.55,0.7,2.33,0.75c0.74,0.05,1.48-0.11,2.19-0.46l0.21-0.1l4.95,3.24C18.94,18.85,18.64,19.12,18.29,19.34z"/>
</svg>
