<?xml version="1.0" encoding="utf-8"?>
<!-- Generator: Adobe Illustrator 24.0.0, SVG Export Plug-In . SVG Version: 6.00 Build 0)  -->
<svg version="1.1" id="Layer_1" xmlns="http://www.w3.org/2000/svg" xmlns:xlink="http://www.w3.org/1999/xlink" x="0px" y="0px"
	 viewBox="0 0 126 77.87" style="enable-background:new 0 0 126 77.87;" xml:space="preserve">
<style type="text/css">
	.st0{fill:#244EA2;}
	.st1{fill:#ED1B34;}
</style>
<g id="XMLID_240_">
	<path id="XMLID_326_" class="st0" d="M83.81,39.97c-0.7,0.07-0.84,1.07-0.16,1.27c0.1,0.02,0.29,0.05,0.35,0.06
		c2.83,0.45,5.69,0.67,8.53,0.67C109.78,42,126,35.57,126,24.06V11.55c0-0.75-0.62-1.37-1.37-1.37h-1.28
		c-0.75,0-1.36,0.61-1.36,1.37v12.51c0,9.78-18.88,17.95-37.77,15.93C84.12,39.99,83.85,39.97,83.81,39.97"/>
	<path id="XMLID_320_" class="st1" d="M31.05,46.24c-6.25,0-11.15,4.23-11.15,9.79c0,5.57,4.76,9.57,11.09,9.57
		c6.25,0,11.15-4.12,11.15-9.68C42.14,50.36,37.37,46.24,31.05,46.24 M31.05,62.26c-3.92,0-6.88-2.7-6.88-6.34
		c0-3.57,2.93-6.25,6.82-6.25c3.86,0,6.88,2.77,6.88,6.36C37.87,59.58,34.94,62.26,31.05,62.26"/>
	<path id="XMLID_318_" class="st1" d="M53.61,54.28c-4.14-0.87-4.8-1.51-4.8-2.75c0-1.16,1.31-1.97,3.18-1.97
		c1.37,0,2.68,0.33,4.07,1.04c0.21,0.1,1.32,0.65,1.32,0.65c0.2,0.1,0.43,0.16,0.65,0.16c0.48,0,0.9-0.26,1.08-0.66l0.46-1.05
		c0.27-0.61-0.07-1.38-0.75-1.72c0,0-1.26-0.65-1.77-0.85c-1.53-0.61-3.18-0.89-5.01-0.89c-4.32,0-7.34,2.27-7.34,5.63
		c0,3.54,2.61,4.79,7.12,5.76c3.85,0.79,4.53,1.47,4.53,2.66c0,1.26-1.4,2.1-3.48,2.1c-2.09,0-3.91-0.6-5.73-1.88
		c-0.33-0.22-0.72-0.32-1.19-0.32c-1.1,0-1.79,1.68-1.85,1.97c-0.08,0.48,0.13,0.83,0.72,1.2c2.34,1.55,5.1,2.23,7.95,2.23
		c4.66,0,7.67-2.12,7.67-5.68C60.46,56.26,57.16,55.04,53.61,54.28"/>
	<path id="XMLID_316_" class="st1" d="M80.02,46.24h-1.39c-0.75,0-1.37,0.61-1.37,1.37v6.54h-9.55v-6.54c0-0.75-0.61-1.37-1.37-1.37
		h-1.39c-0.75,0-1.37,0.61-1.37,1.37v16.63c0,0.75,0.61,1.37,1.37,1.37h1.39c0.75,0,1.37-0.61,1.37-1.37v-6.55h9.55v6.55
		c0,0.75,0.61,1.37,1.37,1.37h1.39c0.76,0,1.37-0.61,1.37-1.37V47.61C81.39,46.86,80.77,46.24,80.02,46.24"/>
	<path id="XMLID_314_" class="st1" d="M124.64,46.24h-1.39c-0.75,0-1.37,0.61-1.37,1.37v11.58l-9.97-11.86
		c-0.56-0.62-1.13-1.09-2.06-1.09h-0.39c-1.15,0-2.06,0.89-2.06,1.94v16.06c0,0.75,0.61,1.37,1.37,1.37h1.39
		c0.76,0,1.37-0.61,1.37-1.37V52.66l9.97,11.86c0.56,0.62,1.13,1.09,2.06,1.09h0.39c1.15,0,2.06-0.88,2.06-1.93V47.61
		C126,46.86,125.39,46.24,124.64,46.24"/>
	<path id="XMLID_308_" class="st1" d="M97.01,47.73c-0.47-0.93-1.32-1.49-2.39-1.49h-0.06c-1.07,0-1.92,0.56-2.39,1.49l-8,15.97
		c-0.46,0.93-0.1,1.91,0.6,1.91h1.93c0.52,0,0.98-0.31,1.22-0.79l1.76-3.64h9.86l1.76,3.64c0.24,0.48,0.7,0.79,1.22,0.79h1.93
		c0.7,0,1.06-0.98,0.6-1.91L97.01,47.73z M91.36,57.64l3.22-6.68l3.22,6.68H91.36z"/>
	<path id="XMLID_260_" class="st0" d="M9.26,55.52H4.12v-5.81h5.1c1.53,0,4.1,0.37,4.1,2.92C13.32,54.39,11.73,55.52,9.26,55.52
		 M4.12,59.08h5.33c7.51,14.14,23.37,18.76,35.3,18.79c1.79,0,3.49-0.1,5.05-0.3c0.89-0.09,0.74-1.34-0.12-1.3
		c-12.06,0.56-28.73-4.51-35.97-18.43c2.43-1.02,3.77-2.94,3.77-5.45c0-1.67-0.63-3.12-1.81-4.2c-1.43-1.26-3.56-1.94-6.16-1.94
		H1.36C0.61,46.24,0,46.86,0,47.61v16.63c0,0.75,0.61,1.37,1.36,1.37h1.39c0.76,0,1.37-0.61,1.37-1.37V59.08z"/>
	<path id="XMLID_258_" class="st1" d="M9.74,8.46c1.07,0,1.96-0.92,1.96-2.02c0-1.1-0.88-1.98-1.96-1.98
		c-1.11,0-2.04,0.91-2.04,1.98C7.7,7.54,8.63,8.46,9.74,8.46"/>
	<path id="XMLID_256_" class="st1" d="M87.5,4c1.09,0,2.02-0.92,2.02-2c0-1.08-0.93-2-2.02-2c-1.07,0-1.98,0.92-1.98,2
		C85.52,3.09,86.43,4,87.5,4"/>
	<path id="XMLID_254_" class="st1" d="M84.93,8.46c1.07,0,2-0.95,2-2.02c0-1.08-0.92-1.98-2-1.98c-1.1,0-2,0.89-2,1.98
		C82.93,7.54,83.84,8.46,84.93,8.46"/>
	<path id="XMLID_252_" class="st1" d="M88.11,6.44c0,1.09,0.91,2.02,1.98,2.02c1.1,0,2.02-0.92,2.02-2.02c0-1.1-0.91-1.98-2.02-1.98
		C89.02,4.46,88.11,5.37,88.11,6.44"/>
	<path id="XMLID_247_" class="st1" d="M96.47,10.19h-1.28c-0.75,0-1.36,0.61-1.36,1.37V19c0,0.84-0.32,1.13-1.22,1.13h-3.08l0-8.57
		c0-0.75-0.61-1.37-1.37-1.37h-1.28c-0.75,0-1.36,0.61-1.36,1.37v8.57h-4.31v-8.57c0-0.75-0.61-1.37-1.36-1.37h-1.28
		c-0.75,0-1.36,0.61-1.36,1.37v8.57H18.17v-8.58c0-0.75-0.61-1.36-1.37-1.36h-1.28c-0.75,0-1.36,0.61-1.36,1.36V23.9
		c0,2.48-2.62,3.35-5.08,3.35c-2.45,0-5.07-0.89-5.07-3.39v-8.33c0-0.75-0.61-1.37-1.36-1.37H1.36C0.61,14.16,0,14.77,0,15.53
		l0.01,8.61c0,4.9,4.7,7.13,9.08,7.13c4.49,0,9.02-2.17,9.09-7.02v-0.17h73.09c3.99,0,6.58-1.96,6.58-5.26v-7.27
		C97.84,10.8,97.22,10.19,96.47,10.19"/>
	<path id="XMLID_241_" class="st1" d="M116.59,10.19h-7.06c-3.04,0-8.13,0.88-8.13,6.95c0,6.07,5.09,6.94,8.13,6.94h4.41v0.31
		c0,2.69-4.08,3.47-7.33,3.17c0,0-0.77-0.08-1.3,0.18c-0.99,0.46-0.88,2.36-0.79,2.66c0.14,0.49,0.48,0.73,1.19,0.85
		c0.67,0.1,1.49,0.14,2.19,0.14c4.86-0.14,10.07-1.52,10.07-7.31V11.55C117.97,10.8,117.35,10.19,116.59,10.19 M113.95,20.13h-4.68
		c-1.41,0-3.77-0.37-3.77-2.97c0-2.62,2.36-2.99,3.77-2.99h4.68V20.13z"/>
</g>
</svg>
