<?xml version="1.0" encoding="utf-8"?>
<!-- Generator: Adobe Illustrator 24.0.0, SVG Export Plug-In . SVG Version: 6.00 Build 0)  -->
<svg version="1.1" id="Layer_1" xmlns="http://www.w3.org/2000/svg" xmlns:xlink="http://www.w3.org/1999/xlink" x="0px" y="0px"
	 viewBox="0 0 171.74 106.14" style="enable-background:new 0 0 171.74 106.14;" xml:space="preserve">
<style type="text/css">
	.st0{fill:#FFFFFF;}
</style>
<g id="XMLID_4_">
	<path id="XMLID_60_" class="st0" d="M114.24,54.48c-0.96,0.1-1.14,1.46-0.22,1.73c0.13,0.03,0.39,0.07,0.48,0.09
		c3.85,0.61,7.76,0.91,11.63,0.92c23.5,0.04,45.61-8.73,45.61-24.41V15.74c0-1.02-0.84-1.86-1.87-1.86h-1.75
		c-1.02,0-1.85,0.83-1.85,1.86V32.8c0,13.33-25.73,24.46-51.48,21.72C114.66,54.5,114.29,54.47,114.24,54.48"/>
	<path id="XMLID_51_" class="st0" d="M42.32,63.03c-8.52,0-15.2,5.77-15.2,13.34c0,7.59,6.49,13.05,15.11,13.05
		c8.52,0,15.2-5.61,15.2-13.19C57.44,68.64,50.94,63.03,42.32,63.03 M42.32,84.86c-5.34,0-9.38-3.68-9.38-8.64
		c0-4.86,4-8.52,9.29-8.52c5.26,0,9.38,3.77,9.38,8.67C51.61,81.21,47.62,84.86,42.32,84.86"/>
	<path id="XMLID_49_" class="st0" d="M73.07,73.98c-5.64-1.19-6.55-2.05-6.55-3.74c0-1.58,1.78-2.68,4.34-2.68
		c1.86,0,3.65,0.45,5.55,1.41c0.28,0.14,1.79,0.89,1.79,0.89c0.28,0.14,0.58,0.21,0.89,0.21c0.66,0,1.23-0.35,1.47-0.9l0.63-1.43
		c0.37-0.84-0.09-1.89-1.02-2.34c0,0-1.72-0.88-2.41-1.15c-2.08-0.83-4.33-1.21-6.82-1.21c-5.89,0-10,3.1-10,7.67
		c0,4.83,3.56,6.53,9.7,7.85c5.25,1.08,6.18,2.01,6.18,3.63c0,1.71-1.9,2.87-4.75,2.87c-2.85,0-5.33-0.81-7.8-2.56
		c-0.45-0.29-0.98-0.44-1.62-0.44c-1.49,0-2.45,2.29-2.52,2.69c-0.11,0.65,0.18,1.13,0.98,1.64c3.2,2.11,6.94,3.03,10.84,3.03
		c6.35,0,10.45-2.9,10.45-7.74C82.4,76.68,77.91,75.03,73.07,73.98"/>
	<path id="XMLID_42_" class="st0" d="M109.06,63.03h-1.9c-1.03,0-1.86,0.84-1.86,1.86v8.92H92.29V64.9c0-1.03-0.83-1.86-1.86-1.86
		h-1.9c-1.03,0-1.86,0.84-1.86,1.86v22.66c0,1.03,0.84,1.86,1.86,1.86h1.9c1.03,0,1.86-0.83,1.86-1.86v-8.92h13.01v8.92
		c0,1.03,0.83,1.86,1.86,1.86h1.9c1.03,0,1.87-0.83,1.87-1.86V64.9C110.93,63.87,110.1,63.03,109.06,63.03"/>
	<path id="XMLID_35_" class="st0" d="M169.88,63.03h-1.9c-1.03,0-1.87,0.84-1.87,1.86v15.78l-13.59-16.16
		c-0.77-0.84-1.53-1.48-2.81-1.48h-0.53c-1.57,0-2.81,1.21-2.81,2.64v21.89c0,1.03,0.83,1.86,1.86,1.86h1.9
		c1.03,0,1.86-0.83,1.86-1.86V71.78l13.59,16.16c0.77,0.84,1.53,1.48,2.8,1.48h0.53c1.57,0,2.81-1.21,2.81-2.64V64.9
		C171.74,63.87,170.9,63.03,169.88,63.03"/>
	<path id="XMLID_29_" class="st0" d="M132.22,65.06c-0.64-1.27-1.81-2.03-3.26-2.03h-0.09c-1.46,0-2.62,0.76-3.26,2.03l-10.91,21.76
		c-0.63,1.26-0.14,2.6,0.81,2.6h2.63c0.7,0,1.33-0.42,1.66-1.07l2.39-4.96h13.44l2.4,4.96c0.33,0.65,0.95,1.07,1.66,1.07h2.63
		c0.96,0,1.44-1.33,0.81-2.6L132.22,65.06z M124.52,78.56l4.4-9.11l4.4,9.11H124.52z"/>
	<path id="XMLID_23_" class="st0" d="M12.62,75.68h-7v-7.92h6.95c2.09,0,5.58,0.51,5.58,3.97C18.16,74.13,15.98,75.68,12.62,75.68
		 M5.62,80.52h7.26c10.23,19.27,31.86,25.58,48.11,25.62c2.44,0.01,4.75-0.13,6.89-0.4c1.21-0.12,1-1.82-0.17-1.78
		c-16.44,0.77-39.16-6.15-49.03-25.12c3.32-1.39,5.14-4,5.14-7.43c0-2.27-0.85-4.25-2.47-5.73c-1.95-1.71-4.86-2.65-8.39-2.65H1.86
		C0.83,63.03,0,63.87,0,64.9v22.66c0,1.03,0.83,1.86,1.86,1.86h1.9c1.03,0,1.86-0.83,1.86-1.86V80.52z"/>
	<path id="XMLID_20_" class="st0" d="M13.27,11.53c1.45,0,2.68-1.26,2.68-2.75c0-1.49-1.2-2.7-2.68-2.7c-1.51,0-2.78,1.24-2.78,2.7
		C10.49,10.27,11.76,11.53,13.27,11.53"/>
	<path id="XMLID_17_" class="st0" d="M119.26,5.46c1.49,0,2.76-1.25,2.76-2.73c0-1.48-1.27-2.73-2.76-2.73
		c-1.46,0-2.7,1.25-2.7,2.73C116.56,4.21,117.8,5.46,119.26,5.46"/>
	<path id="XMLID_15_" class="st0" d="M115.75,11.53c1.45,0,2.73-1.29,2.73-2.75c0-1.47-1.25-2.7-2.73-2.7c-1.5,0-2.72,1.21-2.72,2.7
		C113.03,10.27,114.27,11.53,115.75,11.53"/>
	<path id="XMLID_13_" class="st0" d="M120.1,8.78c0,1.49,1.23,2.75,2.7,2.75c1.5,0,2.76-1.26,2.76-2.75c0-1.49-1.23-2.7-2.76-2.7
		C121.33,6.08,120.1,7.32,120.1,8.78"/>
	<path id="XMLID_11_" class="st0" d="M131.48,13.88h-1.75c-1.02,0-1.86,0.83-1.86,1.86V25.9c0,1.15-0.43,1.54-1.67,1.54h-4.19
		l0.01-11.69c0-1.02-0.83-1.86-1.86-1.86h-1.75c-1.02,0-1.86,0.84-1.86,1.86v11.69h-5.87V15.74c0-1.02-0.83-1.86-1.86-1.86h-1.75
		c-1.02,0-1.86,0.84-1.86,1.86v11.69H24.77V15.74c0-1.03-0.83-1.86-1.86-1.86h-1.75c-1.03,0-1.86,0.83-1.86,1.86v16.83
		c0,3.37-3.57,4.57-6.92,4.57c-3.33,0-6.92-1.21-6.92-4.62V21.16c0-1.03-0.83-1.87-1.86-1.87H1.86C0.83,19.29,0,20.14,0,21.16
		L0.01,32.9c0,6.68,6.41,9.72,12.37,9.72c6.12,0,12.29-2.96,12.39-9.56v-0.24h99.62c5.43,0,8.96-2.67,8.96-7.17v-9.91
		C133.35,14.72,132.51,13.88,131.48,13.88"/>
	<path id="XMLID_5_" class="st0" d="M158.92,13.88h-9.62c-4.15,0-11.09,1.2-11.09,9.48c0,8.27,6.94,9.46,11.09,9.46h6.01v0.42
		c0,3.66-5.55,4.73-9.99,4.32c0,0-1.05-0.12-1.77,0.25c-1.35,0.63-1.2,3.22-1.08,3.63c0.19,0.67,0.66,1,1.62,1.15
		c0.92,0.14,2.04,0.2,2.98,0.2c6.62-0.19,13.72-2.07,13.72-9.97V15.74C160.79,14.72,159.94,13.88,158.92,13.88 M155.31,27.43h-6.39
		c-1.92,0-5.14-0.5-5.14-4.05c0-3.57,3.22-4.08,5.14-4.08h6.39V27.43z"/>
</g>
</svg>
