<?xml version="1.0" encoding="utf-8"?>
<!-- Generator: Adobe Illustrator 24.0.0, SVG Export Plug-In . SVG Version: 6.00 Build 0)  -->
<svg version="1.1" id="Layer_1" xmlns="http://www.w3.org/2000/svg" xmlns:xlink="http://www.w3.org/1999/xlink" x="0px" y="0px"
	 viewBox="0 0 103.95 103.95" style="enable-background:new 0 0 103.95 103.95;" xml:space="preserve">
<style type="text/css">
	.st0{fill:#244EA2;}
	.st1{fill:#FFFFFF;}
</style>
<g>
	<g>
		<g>
			<g>
				<g>
					<circle class="st0" cx="51.98" cy="51.98" r="50.98"/>
				</g>
				<g>
					<path class="st1" d="M51.98,103.96C23.32,103.96,0,80.64,0,51.98S23.32,0,51.98,0s51.98,23.32,51.98,51.98
						S80.64,103.96,51.98,103.96z M51.98,2C24.42,2,2,24.42,2,51.98s22.42,49.98,49.98,49.98s49.98-22.42,49.98-49.98
						S79.54,2,51.98,2z"/>
				</g>
			</g>
		</g>
	</g>
	<g>
		<path class="st1" d="M42.64,73.67c-0.01,0-0.01,0-0.02,0c-1.2,0-2.35-0.49-3.19-1.34L23.71,56.38c-1.75-1.77-1.73-4.62,0.04-6.36
			c1.77-1.74,4.62-1.73,6.36,0.04l12.55,12.72l31.2-31.19c1.76-1.76,4.61-1.76,6.36,0c1.76,1.76,1.76,4.61,0,6.36l-34.4,34.39
			C44.98,73.2,43.83,73.67,42.64,73.67z"/>
	</g>
</g>
</svg>
