<?xml version="1.0" encoding="utf-8"?>
<!-- Generator: Adobe Illustrator 24.0.0, SVG Export Plug-In . SVG Version: 6.00 Build 0)  -->
<svg version="1.1" id="Layer_1" xmlns="http://www.w3.org/2000/svg" xmlns:xlink="http://www.w3.org/1999/xlink" x="0px" y="0px"
	 viewBox="0 0 20.04 20.38" style="enable-background:new 0 0 20.04 20.38;" xml:space="preserve">
<style type="text/css">
	.st0{fill:#244EA2;}
</style>
<path class="st0" d="M12.3,10.23c1.82-0.86,3.1-2.71,3.1-4.85C15.4,2.41,12.99,0,10.02,0S4.64,2.41,4.64,5.38
	c0,2.15,1.27,3.99,3.1,4.85C3.31,11.27,0,15.24,0,19.98c0,0.22,0.18,0.4,0.4,0.4s0.4-0.18,0.4-0.4c0-5.08,4.14-9.22,9.22-9.22
	c5.08,0,9.22,4.14,9.22,9.22c0,0.22,0.18,0.4,0.4,0.4s0.4-0.18,0.4-0.4C20.04,15.24,16.73,11.27,12.3,10.23z M5.44,5.38
	c0-2.53,2.05-4.58,4.58-4.58c2.53,0,4.58,2.05,4.58,4.58s-2.05,4.58-4.58,4.58C7.49,9.96,5.44,7.91,5.44,5.38z"/>
</svg>
